HIERARCHY
ROOT Hips
{
	OFFSET 0.00000 0.00000 0.00000
	CHANNELS 6 Xposition Yposition Zposition Zrotation Yrotation Xrotation 
	JOINT LHipJoint
	{
		OFFSET 0 0 0
		CHANNELS 3 Zrotation Yrotation Xrotation
		JOINT LeftUpLeg
		{
			OFFSET 1.40252 -1.71424 0.59123
			CHANNELS 3 Zrotation Yrotation Xrotation
			JOINT LeftLeg
			{
				OFFSET 2.50071 -6.87065 0.00000
				CHANNELS 3 Zrotation Yrotation Xrotation
				JOINT LeftFoot
				{
					OFFSET 2.50834 -6.89162 0.00000
					CHANNELS 3 Zrotation Yrotation Xrotation
					JOINT LeftToeBase
					{
						OFFSET 0.21528 -0.59149 1.64448
						CHANNELS 3 Zrotation Yrotation Xrotation
						End Site
						{
							OFFSET 0.00000 -0.00000 0.87921
						}
					}
				}
			}
		}
	}
	JOINT RHipJoint
	{
		OFFSET 0 0 0
		CHANNELS 3 Zrotation Yrotation Xrotation
		JOINT RightUpLeg
		{
			OFFSET -1.53651 -1.71424 0.59123
			CHANNELS 3 Zrotation Yrotation Xrotation
			JOINT RightLeg
			{
				OFFSET -2.45783 -6.75285 0.00000
				CHANNELS 3 Zrotation Yrotation Xrotation
				JOINT RightFoot
				{
					OFFSET -2.51921 -6.92147 0.00000
					CHANNELS 3 Zrotation Yrotation Xrotation
					JOINT RightToeBase
					{
						OFFSET -0.21777 -0.59831 1.59676
						CHANNELS 3 Zrotation Yrotation Xrotation
						End Site
						{
							OFFSET -0.00000 -0.00000 0.85779
						}
					}
				}
			}
		}
	}
	JOINT LowerBack
	{
		OFFSET 0 0 0
		CHANNELS 3 Zrotation Yrotation Xrotation
		JOINT Spine
		{
			OFFSET 0.02212 2.07622 0.03776
			CHANNELS 3 Zrotation Yrotation Xrotation
			JOINT Spine1
			{
				OFFSET -0.00949 2.08009 -0.00123
				CHANNELS 3 Zrotation Yrotation Xrotation
				JOINT Neck
				{
					OFFSET 0 0 0
					CHANNELS 3 Zrotation Yrotation Xrotation
					JOINT Neck1
					{
						OFFSET 0.00288 1.67184 0.11155
						CHANNELS 3 Zrotation Yrotation Xrotation
						JOINT Head
						{
							OFFSET -0.02412 1.66997 -0.22040
							CHANNELS 3 Zrotation Yrotation Xrotation
							End Site
							{
								OFFSET -0.01026 1.69043 -0.08683
							}
						}
					}
				}
				JOINT LeftShoulder
				{
					OFFSET 0 0 0
					CHANNELS 3 Zrotation Yrotation Xrotation
					JOINT LeftArm
					{
						OFFSET 3.97941 0.74048 0.81462
						CHANNELS 3 Zrotation Yrotation Xrotation
						JOINT LeftForeArm
						{
							OFFSET 5.01834 -0.00000 -0.00000
							CHANNELS 3 Zrotation Yrotation Xrotation
							JOINT LeftHand
							{
								OFFSET 3.48690 -0.00000 0.00000
								CHANNELS 3 Zrotation Yrotation Xrotation
								JOINT LeftFingerBase
								{
									OFFSET 0 0 0
									CHANNELS 3 Zrotation Yrotation Xrotation
									JOINT LeftHandIndex1
									{
										OFFSET 0.76799 -0.00000 0.00000
										CHANNELS 3 Zrotation Yrotation Xrotation
										End Site
										{
											OFFSET 0.61917 -0.00000 0.00000
										}
									}
								}
								JOINT LThumb
								{
									OFFSET 0 0 0
									CHANNELS 3 Zrotation Yrotation Xrotation
									End Site
									{
										OFFSET 0.62863 -0.00000 0.62863
									}
								}
							}
						}
					}
				}
				JOINT RightShoulder
				{
					OFFSET 0 0 0
					CHANNELS 3 Zrotation Yrotation Xrotation
					JOINT RightArm
					{
						OFFSET -3.88702 1.02123 0.44091
						CHANNELS 3 Zrotation Yrotation Xrotation
						JOINT RightForeArm
						{
							OFFSET -4.70164 -0.00000 0.00000
							CHANNELS 3 Zrotation Yrotation Xrotation
							JOINT RightHand
							{
								OFFSET -3.49911 -0.00000 0.00000
								CHANNELS 3 Zrotation Yrotation Xrotation
								JOINT RightFingerBase
								{
									OFFSET 0 0 0
									CHANNELS 3 Zrotation Yrotation Xrotation
									JOINT RightHandIndex1
									{
										OFFSET -0.73933 -0.00000 0.00000
										CHANNELS 3 Zrotation Yrotation Xrotation
										End Site
										{
											OFFSET -0.59607 -0.00000 0.00000
										}
									}
								}
								JOINT RThumb
								{
									OFFSET 0 0 0
									CHANNELS 3 Zrotation Yrotation Xrotation
									End Site
									{
										OFFSET -0.60517 -0.00000 0.60517
									}
								}
							}
						}
					}
				}
			}
		}
	}
}
MOTION
Frames: 14
Frame Time: .0083333
-13.7805 17.4859 0.966 0 0 0 0 0 0 -21 0 0 0 0 0 0 0 0 0 0 0 0 0 0 21 0 0 0 0 0 0 0 0 0 0 0 0 0 0 0 0 0 0 0 0 0 0 -16 0 0 21 0 0 11 0 0 0 -8 0 0 0 0 0 0 0 0 0 0 0 0 0 0 0 0 0 0 0 0 8 0 0 0 0 0 0 0 0 0 0 0 0 0 0 0 0 0
-13.7805 17.4859 0.9660 -23.9312 82.9133 -18.8411 0.0000 0.0000 0.0000 -15.3660 -4.8516 -1.1280 0.2380 3.1396 8.6676 1.6518 0.7359 -24.5834 2.7100 10.2100 29.6596 0.0000 0.0000 0.0000 22.8001 9.2872 -4.3583 -0.4339 -4.2269 11.7160 -0.6015 -4.0499 -16.6838 -0.0810 -1.8359 5.0523 6.7724 1.6842 -3.5078 1.2440 2.0283 -1.0522 -2.4180 1.0361 1.0688 -5.0645 -9.0214 -6.3919 1.5527 -11.7236 8.1014 0.6963 -5.8739 4.2474 0.0000 0.0000 0.0000 -98.5803 -1.7808 18.3507 15.0290 -24.1865 -3.2378 -0.0000 0.0000 -0.4854 23.2175 41.9116 15.9891 -7.1250 0.0000 -0.0000 -22.9792 73.2089 -15.5782 0.0000 0.0000 0.0000 98.0313 -2.3010 12.6144 -14.8005 23.8674 -3.1448 0.0000 0.0000 23.5408 -20.3272 5.7216 -2.1151 7.1250 -0.0000 -0.0000 4.7337 -23.8841 2.4197
-13.7569 17.5022 0.9698 -19.3052 83.5630 -13.5829 0.0000 0.0000 0.0000 -16.1431 -5.2712 -1.8865 0.2501 3.2180 8.8864 1.6428 0.4538 -24.4160 2.7016 10.1956 29.6126 0.0000 0.0000 0.0000 21.7914 9.4275 -4.7185 -0.3955 -4.0379 11.1834 -0.5611 -4.7444 -16.6770 -0.0669 -1.6690 4.5917 5.6916 1.6216 -4.6249 1.0859 1.9109 -1.2397 -1.9568 0.9822 1.4615 -4.7990 -9.0901 -5.8947 1.3300 -11.8416 7.7705 0.6075 -5.9376 3.9967 -0.0000 -0.0000 0.0000 -98.5708 -1.6303 18.3451 15.0185 -24.1719 -3.2335 -0.0000 0.0000 -0.4517 23.1985 42.0612 16.0193 -7.1250 0.0000 -0.0000 -23.2924 73.3312 -15.8571 -0.0000 -0.0000 0.0000 98.0337 -2.8278 13.5112 -14.2905 23.1485 -2.9414 0.0000 0.0000 27.9608 -26.8924 4.6629 -2.3609 7.1250 -0.0000 -0.0000 -0.1739 -24.7544 -0.0851
-13.7335 17.5186 0.9738 -13.4819 84.1414 -7.1235 0.0000 0.0000 0.0000 -16.9221 -5.6283 -2.6327 0.2590 3.2743 9.0435 1.6254 0.1489 -24.1815 2.7353 10.2537 29.8024 0.0000 0.0000 0.0000 20.7714 9.6258 -5.0939 -0.3636 -3.8737 10.7216 -0.5285 -5.3040 -16.6954 -0.0640 -1.6317 4.4888 4.6721 1.5720 -5.6394 0.8506 1.8459 -1.4843 -1.6110 0.9500 1.7478 -4.6199 -9.1761 -5.3108 1.3023 -11.9948 7.3822 0.6012 -6.0133 3.7343 -0.0000 -0.0000 0.0000 -98.4214 -1.3914 18.4066 14.9797 -24.1178 -3.2176 -0.0000 0.0000 -0.2924 23.0891 42.0793 15.9444 -7.1250 0.0000 -0.0000 -23.4709 73.3075 -15.9703 -0.0000 -0.0000 0.0000 98.1738 -3.1508 13.3582 -14.3848 23.2821 -2.9785 0.0000 0.0000 27.8331 -26.8320 4.8393 -2.4435 7.1250 -0.0000 -0.0000 -0.1229 -24.5599 -0.0607
-13.7118 17.5334 0.9791 -6.2944 84.6555 0.6654 0.0000 0.0000 0.0000 -17.7026 -5.9337 -3.3544 0.2673 3.3259 9.1875 1.5967 -0.2304 -23.8404 2.7275 10.2402 29.7581 0.0000 0.0000 0.0000 19.7537 9.8044 -5.4775 -0.3369 -3.7300 10.3183 -0.4835 -5.9825 -16.6817 -0.0438 -1.3505 3.7139 3.6319 1.5347 -6.5310 0.5730 1.8333 -1.8038 -1.2978 0.9413 1.8923 -4.2319 -9.2982 -4.5423 1.0439 -12.1986 6.9796 0.4976 -6.1182 3.4023 -0.0000 0.0000 0.0000 -98.1320 -0.9467 18.7384 14.9615 -24.0924 -3.2102 -0.0000 0.0000 -0.3030 22.9242 42.0048 15.8021 -7.1250 0.0000 -0.0000 -23.5413 73.1846 -15.9581 -0.0000 0.0000 0.0000 98.4016 -3.6344 13.1029 -14.4792 23.4155 -3.0159 0.0000 0.0000 27.7668 -26.8484 4.9715 -2.5118 7.1250 -0.0000 -0.0000 -0.1307 -24.4112 -0.0650
-13.6444 17.5762 0.9973 -19.9930 85.7820 -11.0976 0.0000 0.0000 0.0000 -16.2811 -6.5096 -5.5268 0.2888 3.4557 9.5501 1.5376 -1.3367 -23.0604 2.6666 10.1348 29.4142 0.0000 0.0000 0.0000 20.6673 9.9194 -6.8863 -0.2921 -3.4752 9.6047 -0.4248 -7.0098 -16.8392 -0.0415 -1.3142 3.6138 4.1460 1.3271 -9.5086 0.8178 1.4049 -2.2666 -1.3125 0.7555 3.0487 -4.0062 -9.3464 -4.0549 1.0268 -12.2964 6.8975 0.4797 -6.1638 3.2659 0.0000 -0.0000 0.0000 -97.8899 -0.5291 19.0457 14.9829 -24.1223 -3.2189 -0.0000 0.0000 -0.4727 22.9017 41.9478 15.7691 -7.1250 0.0000 -0.0000 -23.4608 73.1276 -15.8736 0.0000 -0.0000 0.0000 98.5626 -4.0294 12.8831 -14.5278 23.4842 -3.0353 0.0000 0.0000 27.8242 -26.9282 4.9628 -2.5161 7.1250 -0.0000 -0.0000 -0.1905 -24.4170 -0.0947
-13.6023 17.6053 1.0117 -21.4839 86.6567 -11.3205 0.0000 0.0000 0.0000 -16.2494 -7.0152 -6.9910 0.3076 3.5658 9.8581 1.5051 -2.0564 -22.6245 2.6807 10.1593 29.4943 0.0000 0.0000 0.0000 20.3357 10.1507 -7.7992 -0.2593 -3.2760 9.0481 -0.3749 -7.9874 -17.1409 -0.0652 -1.6478 4.5333 3.5784 0.9734 -11.4070 0.8853 0.9225 -2.4541 -0.9566 0.5292 3.8663 -4.1801 -9.2755 -4.4253 1.1022 -12.1817 7.0106 0.5139 -6.1069 3.3910 0.0000 0.0000 0.0000 -97.9123 -0.6081 18.6616 14.9370 -24.0583 -3.2002 -0.0000 0.0000 -0.3958 23.0591 41.9351 15.8802 -7.1250 0.0000 -0.0000 -23.2314 73.1726 -15.7361 0.0000 0.0000 0.0000 98.4744 -3.9080 12.9796 -14.4201 23.3321 -2.9925 0.0000 0.0000 28.1006 -26.8999 5.0511 -2.5575 7.1250 -0.0000 -0.0000 -0.1664 -24.3196 -0.0831
-13.5982 17.6050 1.0009 -23.0131 86.5663 -12.8414 0.0000 0.0000 0.0000 -16.1553 -6.9208 -6.9727 0.3065 3.5596 9.8409 1.5098 -2.0939 -22.6514 2.7754 10.3222 30.0266 0.0000 0.0000 0.0000 20.4545 10.3783 -7.6651 -0.2547 -3.2470 8.9672 -0.3821 -8.1136 -17.3517 -0.1068 -2.1070 5.8015 3.6939 1.0023 -11.3336 0.8856 0.9545 -2.5191 -1.0184 0.5448 3.7609 -4.0694 -9.2805 -4.5108 0.9349 -12.1803 7.1150 0.4361 -6.1090 3.4222 0.0000 0.0000 0.0000 -97.8795 -0.5056 18.2700 14.8424 -23.9260 -3.1617 -0.0000 0.0000 -0.0718 23.1854 41.9963 15.9905 -7.1250 0.0000 -0.0000 -23.1839 73.2705 -15.7513 0.0000 0.0000 0.0000 98.4584 -3.8893 12.8489 -14.2721 23.1223 -2.9341 0.0000 0.0000 28.3789 -26.8743 5.1857 -2.6225 7.1250 -0.0000 -0.0000 -0.1426 -24.1702 -0.0717
-13.5939 17.6041 0.9933 -23.5483 86.5662 -13.2585 0.0000 0.0000 0.0000 -16.1168 -6.9467 -7.0229 0.2992 3.5170 9.7217 1.4910 -2.1142 -22.5006 2.8278 10.4110 30.3181 0.0000 0.0000 0.0000 20.4707 10.7180 -7.6153 -0.2504 -3.2196 8.8906 -0.3642 -8.4442 -17.4617 -0.1066 -2.1056 5.7975 3.6832 1.0160 -11.3766 0.8660 0.9810 -2.6503 -1.0296 0.5568 3.6486 -3.9431 -9.3076 -4.5297 0.7170 -12.2079 7.3203 0.3386 -6.1271 3.4719 -0.0000 -0.0000 0.0000 -97.8310 -0.2927 17.9259 14.7555 -23.8044 -3.1266 -0.0000 -0.0000 0.3066 23.1310 41.9890 15.9486 -7.1250 0.0000 -0.0000 -23.2413 73.2447 -15.7786 -0.0000 -0.0000 0.0000 98.4165 -4.0156 12.8387 -14.1794 22.9906 -2.8978 0.0000 0.0000 28.3388 -26.9393 5.1553 -2.6145 7.1250 -0.0000 -0.0000 -0.1921 -24.2009 -0.0965
-13.5895 17.6033 0.9899 -24.5476 86.6621 -14.1180 0.0000 0.0000 0.0000 -16.0477 -6.9891 -7.1076 0.2918 3.4736 9.6002 1.4635 -2.2624 -22.2512 2.8745 10.4891 30.5754 0.0000 0.0000 0.0000 20.4827 10.9660 -7.6141 -0.2456 -3.1889 8.8050 -0.3455 -8.7469 -17.5421 -0.1139 -2.1761 5.9925 3.5890 0.9787 -11.5001 0.8666 0.9429 -2.7354 -0.9805 0.5375 3.6245 -4.0585 -9.2924 -4.5651 0.8312 -12.1871 7.4895 0.3868 -6.1152 3.5551 -0.0000 0.0000 0.0000 -97.7424 -0.2593 17.5691 14.6015 -23.5881 -3.0647 -0.0000 -0.0000 0.7257 22.8653 41.8167 15.7044 -7.1250 0.0000 -0.0000 -23.2582 73.0016 -15.6702 -0.0000 0.0000 0.0000 98.3682 -4.0925 12.9048 -14.1179 22.9030 -2.8738 0.0000 0.0000 28.1859 -26.9915 5.1364 -2.6109 7.1250 -0.0000 -0.0000 -0.2317 -24.2194 -0.1162
-13.5912 17.6071 0.9762 -24.0507 86.7539 -13.4528 0.0000 0.0000 0.0000 -16.1442 -7.0131 -7.3465 0.2958 3.4973 9.6664 1.4448 -2.4060 -22.0706 2.8994 10.5304 30.7121 0.0000 0.0000 0.0000 20.3356 10.9297 -7.8395 -0.2462 -3.1928 8.8159 -0.3384 -8.7356 -17.4444 -0.1093 -2.1318 5.8700 3.5322 0.9713 -11.6171 0.8227 0.9385 -2.7658 -0.9935 0.5357 3.6568 -4.1200 -9.2680 -4.7508 0.9629 -12.1544 7.5626 0.4279 -6.0946 3.6304 0.0000 -0.0000 0.0000 -97.6175 -0.3467 17.3863 14.4540 -23.3801 -3.0059 -0.0000 -0.0000 1.0202 22.6605 41.7278 15.5298 -7.1250 0.0000 -0.0000 -23.3565 72.8525 -15.6641 0.0000 -0.0000 0.0000 98.3028 -4.1040 12.9686 -14.1150 22.8989 -2.8727 0.0000 0.0000 28.1803 -26.9443 5.0756 -2.5748 7.1250 -0.0000 -0.0000 -0.1987 -24.2899 -0.0994
-13.5912 17.6071 0.9637 -24.2764 86.7566 -13.6271 0.0000 0.0000 0.0000 -16.1794 -6.9412 -7.5574 0.3093 3.5752 9.8846 1.4456 -2.5213 -22.0514 2.9451 10.6056 30.9610 0.0000 0.0000 0.0000 20.2862 10.8780 -7.9556 -0.2483 -3.2065 8.8542 -0.3327 -8.7306 -17.3705 -0.0926 -1.9629 5.4030 3.5235 0.9854 -11.6479 0.8338 0.9538 -2.7189 -0.9739 0.5440 3.7231 -4.0918 -9.2812 -5.0878 0.8785 -12.1548 7.6765 0.3751 -6.0956 3.7266 -0.0000 0.0000 0.0000 -97.5427 -0.4340 17.3761 14.3619 -23.2496 -2.9695 -0.0000 -0.0000 0.9947 22.7823 41.8234 15.6459 -7.1250 0.0000 -0.0000 -23.3788 72.9780 -15.7420 -0.0000 0.0000 0.0000 98.1617 -4.1140 13.0604 -14.1412 22.9361 -2.8829 0.0000 0.0000 28.2664 -26.9096 4.9973 -2.5315 7.1250 -0.0000 -0.0000 -0.1755 -24.3792 -0.0874
-13.5901 17.6074 0.9498 -24.0108 86.7566 -13.3623 0.0000 0.0000 0.0000 -16.2660 -6.8941 -7.6378 0.3167 3.6178 10.0038 1.4387 -2.5371 -21.9940 2.9819 10.6657 31.1607 0.0000 0.0000 0.0000 20.2049 10.7552 -8.0352 -0.2509 -3.2228 8.8997 -0.3364 -8.6338 -17.3154 -0.0824 -1.8513 5.0950 3.5348 1.0043 -11.6172 0.8312 0.9776 -2.7006 -0.9797 0.5558 3.7267 -4.0139 -9.3385 -5.1973 0.7129 -12.2196 7.6880 0.3001 -6.1317 3.7347 0.0000 -0.0000 0.0000 -97.5443 -0.5247 17.0086 14.1844 -22.9977 -2.8998 -0.0000 -0.0000 1.3085 22.8901 41.8959 15.7455 -7.1250 0.0000 -0.0000 -23.3767 73.0787 -15.7907 0.0000 -0.0000 0.0000 98.0629 -4.0622 12.8958 -14.0525 22.8096 -2.8484 0.0000 0.0000 28.5672 -26.9531 5.0684 -2.5722 7.1250 -0.0000 -0.0000 -0.2054 -24.2976 -0.1027
-13.5883 17.6092 0.9375 -23.4562 86.8021 -12.8659 0.0000 0.0000 0.0000 -16.3899 -6.8384 -7.5744 0.3154 3.6099 9.9818 1.4189 -2.5596 -21.8313 3.0206 10.7284 31.3691 0.0000 0.0000 0.0000 20.1129 10.5951 -8.0358 -0.2527 -3.2343 8.9317 -0.3404 -8.5272 -17.2564 -0.0775 -1.7963 4.9430 3.5554 1.0058 -11.5348 0.7759 0.9823 -2.7036 -1.0496 0.5573 3.6796 -4.1406 -9.3103 -5.1882 0.9042 -12.1884 7.7500 0.3814 -6.1120 3.7788 0.0000 -0.0000 0.0000 -97.5006 -0.5529 16.3952 13.9732 -22.6964 -2.8178 -0.0000 -0.0000 1.9680 22.8067 41.8105 15.6600 -7.1250 0.0000 -0.0000 -23.3227 72.9755 -15.7019 0.0000 -0.0000 0.0000 98.0624 -4.0111 12.7019 -13.9183 22.6178 -2.7966 0.0000 0.0000 28.8590 -26.9625 5.1780 -2.6286 7.1250 -0.0000 -0.0000 -0.2085 -24.1744 -0.1048
